# AST/ASF file generated using VICON BodyLanguage
# -----------------------------------------------
:version 1.10
:name VICON
:units
  mass 1.0
  length 0.45
  angle deg
:documentation
   .ast/.asf automatically generated from VICON data using
   VICON BodyBuilder and BodyLanguage model FoxedUp or BRILLIANT.MOD
:root
   order TX TY TZ RX RY RZ
   axis XYZ
   position 0 0 0  
   orientation 0 0 0 
:bonedata
  begin
     id 1 
     name lhipjoint
     direction 0.630305 -0.712092 0.309259 
     length 2.29033 
     axis 0 0 0  XYZ
  end
  begin
     id 2 
     name lfemur
     direction 0.34202 -0.939693 0  
     length 6.43538  
     axis 0 0 20  XYZ
    dof rx ry rz
    limits (-160.0 20.0)
           (-70.0 70.0)
           (-60.0 70.0)
  end
  begin
     id 3 
     name ltibia
     direction 0.34202 -0.939693 0   
     length 7.43097   
     axis 0 0 20   XYZ
    dof rx
    limits (-10.0 170.0)
  end
  begin
     id 4 
     name lfoot
     direction 0.0334653 -0.0919451 0.995202   
     length 1.78438   
     axis -90 7.62852e-016 20   XYZ
    dof rx rz
    limits (-45.0 90.0)
           (-70.0 20.0)
  end
  begin
     id 5 
     name ltoes
     direction 1.53535e-011 -4.21933e-011 1   
     length 0.90832   
     axis -90 7.62852e-016 20   XYZ
    dof rx
    limits (-90.0 20.0)
  end
  begin
     id 6 
     name rhipjoint
     direction -0.682059 -0.67077 0.291312   
     length 2.43143  
     axis 0 0 0  XYZ 
  end
  begin
     id 7 
     name rfemur
     direction -0.34202 -0.939693 0   
     length 6.63488   
     axis 0 0 -20   XYZ
    dof rx ry rz
    limits (-160.0 20.0)
           (-70.0 70.0)
           (-70.0 60.0)
  end
  begin
     id 8 
     name rtibia
     direction -0.34202 -0.939693 0   
     length 6.86532   
     axis 0 0 -20   XYZ
    dof rx
    limits (-10.0 170.0)
 end
 begin
     id 9 
     name rfoot
     direction -0.105199 -0.289033 0.951521   
     length 1.77126  
     axis -90 -7.62852e-016 -20   XYZ
    dof rx rz
    limits (-45.0 90.0)
           (-20.0 70.0)
  end
  begin
     id 10 
     name rtoes
     direction -1.53551e-011 -4.21978e-011 1   
     length 0.889273   
     axis -90 -7.62852e-016 -20   XYZ
    dof rx
    limits (-90.0 20.0)
  end
  begin
     id 11 
     name lowerback
     direction -0.0514305 0.998089 0.034245   
     length 2.02077   
     axis 0 0 0   XYZ
    dof rx ry rz
    limits (-20.0 45.0)
           (-30.0 30.0)
           (-30.0 30.0)
  end
  begin
     id 12 
     name upperback
     direction 0.0203189 0.999449 -0.0262315   
     length 2.01413   
     axis 0 0 0   XYZ
    dof rx ry rz
    limits (-20.0 45.0)
           (-30.0 30.0)
           (-30.0 30.0)
  end
  begin
     id 13 
     name thorax
     direction 0.0452736 0.998142 -0.0407729   
     length 2.02986   
     axis 0 0 0   XYZ
    dof rx ry rz
    limits (-20.0 45.0)
           (-30.0 30.0)
           (-30.0 30.0)
  end
  begin
     id 14 
     name lowerneck
     direction -0.0180464 0.999645 -0.0195774   
     length 1.59034   
     axis 0 0 0   XYZ
    dof rx ry rz
    limits (-20.0 45.0)
           (-30.0 30.0)
           (-30.0 30.0)
  end
  begin
     id 15 
     name upperneck
     direction 0.0732272 0.979935 -0.18538   
     length 1.57486   
     axis 0 0 0   XYZ
    dof rx ry rz
    limits (-20.0 45.0)
           (-30.0 30.0)
           (-30.0 30.0)
  end
  begin
     id 16
     name head
     direction 0.0252963 0.997909 -0.059472  
     length 1.60334  
     axis 0 0 0   XYZ
    dof rx ry rz
    limits (-20.0 45.0)
           (-30.0 30.0)
           (-30.0 30.0)
  end
  begin
     id 17 
     name lclavicle
     direction 0.943819 0.330449 0.00315172  
     length 3.50322  
     axis 0 0 0   XYZ
    dof ry rz
    limits (-20.0 10.0)
           (0.0 20.0)
  end
  begin
     id 18 
     name lhumerus
     direction 1 -4.48949e-011 2.22502e-028   
     length 4.63208   
     axis 180 -30 -90   XYZ
    dof rx ry rz
    limits (-60.0 90.0)
           (-90.0 90.0)
           (-90.0 90.0)
  end
  begin
     id 19
     name lradius
     direction 1 -4.48967e-011 -4.10197e-027   
     length 3.41924   
     axis 180 -30 -90   XYZ
    dof rx
    limits (-10.0 170.0)
  end
  begin
     id 20
     name lwrist
     direction 1 -4.48987e-011 -1.24264e-027   
     length 1.70962   
     axis 2.50585e-015 90 90   XYZ
    dof ry
    limits (-180.0 0.0)
 end
  begin
     id 21 
     name lhand
     direction 1 -4.48983e-011 -2.48528e-027   
     length 0.62537   
     axis 1.58582e-015 90 90   XYZ
    dof rx rz
    limits (-90.0 90.0)
           (-45.0 45.0)
  end
  begin
     id 22 
     name lfingers
     direction 1 -4.48896e-011 -4.97056e-027   
     length 0.50419   
     axis 3.17164e-015 90 90   XYZ
    dof rx
    limits (0.0 90.0)
  end
  begin
     id 23
     name lthumb
     direction 0.707107 -6.34803e-011 0.707107   
     length 0.723919   
     axis -90 45 2.85299e-015   XYZ
    dof rx rz
    limits (-45.0 45.0)
           (-45.0 45.0)
  end
  begin
     id 24 
     name rclavicle
     direction -0.964499 0.260664 -0.0423695   
     length 3.91997  
     axis 0 0 0   XYZ 
    dof ry rz
    limits (-10.0 20.0)
           (-20.0 0.0)
  end
  begin
     id 25 
     name rhumerus
     direction -1 -4.48957e-011 -1.98656e-027  
     length 4.4064   
     axis 180 30 90   XYZ
    dof rx ry rz
    limits (-90.0 60.0)
           (-90.0 90.0)
           (-90.0 90.0)
  end
  begin
     id 26 
     name rradius
     direction -1 -4.48968e-011 1.96972e-027   
     length 3.44675   
     axis 180 30 90   XYZ
    dof rx
    limits (-10.0 170.0)
  end
  begin
     id 27 
     name rwrist
     direction -1 -4.48974e-011 -1.24264e-027   
     length 1.72338   
     axis 2.50585e-015 -90 -90   XYZ
    dof ry
    limits (-180.0 0.0)
  end
  begin
     id 28
     name rhand
     direction -1 -4.48901e-011 -2.48528e-027   
     length 0.513674   
     axis 1.58582e-015 -90 -90   XYZ
    dof rx rz
    limits (-90.0 90.0)
           (-45.0 45.0)
  end
  begin
     id 29
     name rfingers
     direction -1 -4.48946e-011 -4.97056e-027   
     length 0.414137   
     axis 3.17164e-015 -90 -90   XYZ
    dof rx
    limits (0.0 90.0)
  end
  begin
     id 30
     name rthumb
     direction -0.707107 -6.34859e-011 0.707107   
     length 0.59462   
     axis -90 -45 -2.85299e-015   XYZ
    dof rx rz
    limits (-45.0 45.0)
           (-45.0 45.0)
  end
:hierarchy
  begin
    root lhipjoint rhipjoint lowerback
    lhipjoint lfemur
    lfemur ltibia
    ltibia lfoot
    lfoot ltoes
    rhipjoint rfemur
    rfemur rtibia
    rtibia rfoot
    rfoot rtoes
    lowerback upperback
    upperback thorax
    thorax lowerneck lclavicle rclavicle
    lowerneck upperneck
    upperneck head
    lclavicle lhumerus
    lhumerus lradius
    lradius lwrist
    lwrist lhand lthumb
    lhand lfingers
    rclavicle rhumerus
    rhumerus rradius
    rradius rwrist
    rwrist rhand rthumb
    rhand rfingers
  end

#!OML:ASF E:\inclinewalkrobotboard\Project 1\Capture day 1\Session 1\subject1.ASF
:FULLY-SPECIFIED
:DEGREES
235
root 8.54799 17.2709 -9.12764 12.8088 6.31661 7.28598
lowerback -1.42058 -1.00529 -3.7773
upperback 3.40462 -1.348 3.80435
thorax 4.51489 -0.878592 6.02557
lowerneck -6.46722 0.327139 -0.824466
upperneck 30.574 1.7224 -3.65478
head 10.9262 0.321894 -0.984809
rclavicle -2.06736e-014 3.02153e-014
rhumerus -24.182 -21.6223 -67.3358
rradius 26.5787
rwrist 13.9714
rhand -13.4356 -43.1841
rfingers 7.12502
rthumb 12.6732 -72.7796
lclavicle -2.06736e-014 3.02153e-014
lhumerus -23.8195 -20.8281 90.6192
lradius 22.7615
lwrist -18.7529
lhand -25.1032 -20.3819
lfingers 7.12502
lthumb 1.4119 9.59317
rfemur -20.0248 5.07407 11.1492
rtibia 18.5985
rfoot -15.0263 -7.1192
rtoes -25.6183
lfemur -22.402 -12.6812 -17.2472
ltibia 37.7169
lfoot -23.198 -0.431239
ltoes -62.1304
236
root 8.51047 17.2733 -9.03111 12.4728 5.79746 7.40268
lowerback -1.02928 -0.813739 -3.91013
upperback 3.54521 -1.09359 3.70066
thorax 4.40587 -0.754502 6.00951
lowerneck -6.20487 0.516152 -0.753625
upperneck 30.3826 1.97819 -3.69292
head 10.8063 0.448028 -0.981286
rclavicle 7.95139e-016 -1.43125e-014
rhumerus -22.7509 -20.6334 -68.8535
rradius 26.7453
rwrist 12.3545
rhand -16.3533 -40.6638
rfingers 7.12502
rthumb 9.85934 -70.413
lclavicle 7.95139e-016 -1.43125e-014
lhumerus -24.3019 -19.1746 90.0083
lradius 22.0304
lwrist -19.7022
lhand -24.5119 -20.7874
lfingers 7.12502
lthumb 1.98297 9.18309
rfemur -19.3138 5.10335 11.2869
rtibia 18.4642
rfoot -15.1168 -6.65184
rtoes -26.9634
lfemur -23.4695 -12.4386 -17.1636
ltibia 38.007
lfoot -23.1298 -0.0577877
ltoes -61.7994
237
root 8.47797 17.2762 -8.92865 12.2831 5.4147 7.44214
lowerback -0.769821 -0.683847 -3.97984
upperback 3.52815 -0.922438 3.65902
thorax 4.21771 -0.664995 6.01538
lowerneck -5.74754 0.733891 -0.658751
upperneck 30.2099 2.31399 -3.89463
head 10.6603 0.59825 -1.03411
rclavicle 1.98785e-014 -3.18055e-015
rhumerus -21.6546 -19.7694 -70.2346
rradius 27.3086
rwrist 11.9767
rhand -14.9978 -42.4934
rfingers 7.12502
rthumb 11.1669 -72.1763
lclavicle 1.98785e-014 -3.18055e-015
lhumerus -24.9655 -16.978 89.393
lradius 21.2455
lwrist -21.1575
lhand -23.9285 -21.3678
lfingers 7.12502
lthumb 2.54642 8.59678
rfemur -18.6191 5.18206 11.4735
rtibia 18.1573
rfoot -15.439 -6.29478
rtoes -26.3954
lfemur -24.7312 -12.2897 -16.9292
ltibia 38.1748
lfoot -23.1369 0.296049
ltoes -61.2827
238
root 8.44917 17.2766 -8.81896 12.1556 5.02227 7.18878
lowerback -0.767564 -0.521054 -3.79299
upperback 3.60112 -0.712932 3.71364
thorax 4.26166 -0.557948 5.97622
lowerneck -6.0991 0.776031 -0.61466
upperneck 30.3271 2.44009 -4.09883
head 10.7814 0.631806 -1.10225
rclavicle -9.54166e-015 0
rhumerus -20.6925 -18.9726 -71.5938
rradius 28.0321
rwrist 11.2802
rhand -15.0319 -42.6963
rfingers 7.12502
rthumb 11.1339 -72.3809
lclavicle -9.54166e-015 0
lhumerus -25.4937 -14.7731 88.7583
lradius 20.5037
lwrist -22.6593
lhand -23.9804 -21.5312
lfingers 7.12502
lthumb 2.4963 8.43398
rfemur -17.971 5.45441 11.9845
rtibia 17.7888
rfoot -15.7032 -6.12511
rtoes -26.501
lfemur -25.9922 -11.9954 -16.351
ltibia 38.0704
lfoot -22.9764 0.590058
ltoes -60.6428
239
root 8.43864 17.2717 -8.69123 11.8776 4.54892 7.49431
lowerback -0.811226 -0.361523 -4.04893
upperback 3.79866 -0.48756 3.57656
thorax 4.4657 -0.462236 5.98968
lowerneck -6.0004 0.912334 -0.540184
upperneck 30.2486 2.69835 -4.37633
head 10.7438 0.730614 -1.18726
rclavicle -6.36111e-015 -3.97569e-014
rhumerus -19.9411 -18.067 -72.9481
rradius 29.0103
rwrist 10.6155
rhand -15.297 -42.3434
rfingers 7.12502
rthumb 10.8783 -72.0416
lclavicle -6.36111e-015 -3.97569e-014
lhumerus -26.0535 -12.427 88.1995
lradius 19.7793
lwrist -24.1798
lhand -24.2683 -21.4456
lfingers 7.12502
lthumb 2.21826 8.52265
rfemur -16.9423 5.13048 11.8377
rtibia 17.3572
rfoot -15.7595 -5.65699
rtoes -28.8346
lfemur -26.709 -12.0914 -16.6747
ltibia 37.574
lfoot -22.8327 0.98897
ltoes -60.0806
240
root 8.42387 17.2701 -8.58458 11.6517 4.08075 7.40546
lowerback -0.520858 -0.161859 -3.95642
upperback 3.82357 -0.229489 3.53256
thorax 4.28966 -0.324596 5.90079
lowerneck -6.02286 1.07683 -0.669662
upperneck 30.5165 2.96183 -4.33707
head 10.8564 0.837015 -1.12466
rclavicle 1.59028e-014 2.06736e-014
rhumerus -19.4753 -16.8125 -74.2791
rradius 29.2377
rwrist 7.81958
rhand -18.5116 -39.5854
rfingers 7.12502
rthumb 7.77656 -69.4224
lclavicle 1.59028e-014 2.06736e-014
lhumerus -26.7121 -9.82347 87.5873
lradius 18.9838
lwrist -25.7492
lhand -24.3125 -21.4542
lfingers 7.12502
lthumb 2.17554 8.51448
rfemur -16.3754 4.96706 12.1048
rtibia 17.35
rfoot -16.0647 -5.23356
rtoes -29.7314
lfemur -27.8138 -12.0975 -16.3998
ltibia 37.2604
lfoot -22.6962 1.57821
ltoes -59.5358
241
root 8.42043 17.2583 -8.45731 11.2949 3.69532 7.2801
lowerback -0.500037 0.0289176 -3.69932
upperback 4.01292 0.0183327 3.47564
thorax 4.44084 -0.19879 5.70549
lowerneck -5.87341 1.14855 -0.30229
upperneck 30.248 3.12789 -4.82902
head 10.7417 0.906818 -1.34694
rclavicle -1.11319e-014 2.70347e-014
rhumerus -18.9113 -15.674 -75.6401
rradius 30.5132
rwrist 7.72714
rhand -15.3857 -43.2734
rfingers 7.12502
rthumb 10.7928 -72.9762
lclavicle -1.11319e-014 2.70347e-014
lhumerus -27.1482 -7.74627 87.0155
lradius 18.1844
lwrist -26.7205
lhand -24.1204 -21.4542
lfingers 7.12502
lthumb 2.36111 8.5125
rfemur -15.4088 4.66732 12.4072
rtibia 17.1095
rfoot -16.5846 -4.46629
rtoes -28.8222
lfemur -28.5015 -12.1371 -16.2195
ltibia 36.5697
lfoot -22.4099 2.28009
ltoes -59.0837
242
root 8.40671 17.251 -8.35725 11.111 3.20459 6.6842
lowerback -0.304112 0.320985 -3.1522
upperback 4.11976 0.385293 3.56008
thorax 4.39364 0.0019861 5.49579
lowerneck -5.63179 1.18164 -0.359615
upperneck 29.879 3.18841 -4.92025
head 10.5565 0.929636 -1.35987
rclavicle 7.15625e-015 3.18055e-015
rhumerus -17.9898 -15.1698 -76.9836
rradius 30.8954
rwrist 7.82745
rhand -14.5729 -44.2042
rfingers 7.12502
rthumb 11.5767 -73.8645
lclavicle 7.15625e-015 3.18055e-015
lhumerus -27.5707 -5.99797 86.5346
lradius 17.568
lwrist -27.3317
lhand -23.9576 -21.6492
lfingers 7.12502
lthumb 2.51831 8.31568
rfemur -15.0682 5.15354 13.2291
rtibia 17.2651
rfoot -17.1017 -4.24736
rtoes -28.1968
lfemur -29.7324 -11.6879 -15.2738
ltibia 36.0836
lfoot -21.9942 3.00391
ltoes -58.8589
243
root 8.39475 17.2426 -8.25837 10.893 2.57364 6.42305
lowerback 0.141415 0.608584 -3.03683
upperback 4.1523 0.759438 3.55031
thorax 4.13023 0.199265 5.42579
lowerneck -5.7132 1.17067 -0.507253
upperneck 29.6709 3.17069 -4.85331
head 10.4904 0.915169 -1.30884
rclavicle 1.19271e-014 9.54166e-015
rhumerus -17.1291 -14.2573 -78.3855
rradius 30.2709
rwrist 5.93058
rhand -18.5485 -40.7084
rfingers 7.12502
rthumb 7.74093 -70.5467
lclavicle 1.19271e-014 9.54166e-015
lhumerus -28.2109 -3.85105 85.9355
lradius 17.047
lwrist -28.2004
lhand -23.791 -21.9245
lfingers 7.12502
lthumb 2.67916 8.03843
rfemur -14.7559 5.67682 13.6294
rtibia 17.5269
rfoot -17.5836 -4.02222
rtoes -28.0477
lfemur -30.824 -11.1647 -14.7695
ltibia 35.4778
lfoot -21.3429 3.88319
ltoes -58.8254
244
root 8.40131 17.2294 -8.1208 10.8092 2.30584 6.03448
lowerback 0.0843574 0.730817 -2.61473
upperback 4.09979 0.912846 3.59722
thorax 4.09286 0.291877 5.2389
lowerneck -5.67521 1.19566 -0.313868
upperneck 29.6464 3.29452 -5.28125
head 10.4885 0.948036 -1.48327
rclavicle -8.74653e-015 -2.22639e-014
rhumerus -16.8091 -13.4626 -79.5111
rradius 31.082
rwrist 8.08062
rhand -14.1798 -42.9208
rfingers 7.12502
rthumb 11.9557 -72.5594
lclavicle -8.74653e-015 -2.22639e-014
lhumerus -28.9901 -1.48792 85.28
lradius 16.4016
lwrist -29.1136
lhand -23.7349 -21.8283
lfingers 7.12502
lthumb 2.73338 8.13391
rfemur -14.0656 5.5417 14.1744
rtibia 17.3829
rfoot -18.0682 -3.4204
rtoes -27.788
lfemur -31.6956 -11.047 -14.286
ltibia 34.463
lfoot -20.2382 4.95953
ltoes -58.915
245
root 8.41316 17.2094 -7.97359 10.5543 2.10385 6.39029
lowerback 0.129206 0.765626 -3.0203
upperback 4.12729 0.971613 3.4761
thorax 4.08693 0.308814 5.34408
lowerneck -5.64097 1.3855 -0.148919
upperneck 29.7079 3.67399 -5.74382
head 10.531 1.0897 -1.63978
rclavicle -1.82882e-014 -4.13472e-014
rhumerus -16.4301 -12.3614 -80.6903
rradius 30.5569
rwrist 7.05544
rhand -16.4533 -40.2617
rfingers 7.12502
rthumb 9.76284 -70.0154
lclavicle -1.82882e-014 -4.13472e-014
lhumerus -29.6813 1.29062 84.4592
lradius 15.669
lwrist -30.3027
lhand -23.8834 -22.0103
lfingers 7.12502
lthumb 2.58996 7.95368
rfemur -13.0554 5.06314 13.8098
rtibia 17.2091
rfoot -18.5914 -2.79191
rtoes -27.7431
lfemur -32.1724 -11.3353 -14.7801
ltibia 33.2033
lfoot -18.8572 6.26471
ltoes -59.0548
